<?xml version="1.0" encoding="UTF-8" standalone="no"?>
<!DOCTYPE svg PUBLIC "-//W3C//DTD SVG 1.1//EN"
 "http://www.w3.org/Graphics/SVG/1.1/DTD/svg11.dtd">
<!-- Generated by graphviz version 2.40.1 (20161225.0304)
 -->
<!-- Title: dependencies Pages: 1 -->
<svg width="1689pt" height="284pt"
 viewBox="0.00 0.00 1689.00 284.00" xmlns="http://www.w3.org/2000/svg" xmlns:xlink="http://www.w3.org/1999/xlink">
<g id="graph0" class="graph" transform="scale(1 1) rotate(0) translate(4 280)">
<title>dependencies</title>
<polygon fill="#ffffff" stroke="transparent" points="-4,4 -4,-280 1685,-280 1685,4 -4,4"/>
<text text-anchor="start" x="819.5091" y="-42.4" font-family="sans-serif" font-weight="bold" font-size="14.00" fill="#000000">Legend</text>
<polygon fill="#ffffb3" stroke="transparent" points="606.5,-10 606.5,-30 626.5,-30 626.5,-10 606.5,-10"/>
<text text-anchor="start" x="630.129" y="-15.4" font-family="sans-serif" font-size="14.00" fill="#000000"> &#160;Declarations</text>
<polygon fill="#8dd3c7" stroke="transparent" points="719.5,-10 719.5,-30 739.5,-30 739.5,-10 719.5,-10"/>
<text text-anchor="start" x="743.2251" y="-15.4" font-family="sans-serif" font-size="14.00" fill="#000000"> &#160;Module</text>
<polygon fill="#80b1d3" stroke="transparent" points="805.5,-10 805.5,-30 825.5,-30 825.5,-10 805.5,-10"/>
<text text-anchor="start" x="829.2812" y="-15.4" font-family="sans-serif" font-size="14.00" fill="#000000"> &#160;Bootstrap</text>
<polygon fill="#fdb462" stroke="transparent" points="902.5,-10 902.5,-30 922.5,-30 922.5,-10 902.5,-10"/>
<text text-anchor="start" x="926.1732" y="-15.4" font-family="sans-serif" font-size="14.00" fill="#000000"> &#160;Providers</text>
<polygon fill="#fb8072" stroke="transparent" points="998.5,-10 998.5,-30 1018.5,-30 1018.5,-10 998.5,-10"/>
<text text-anchor="start" x="1022.2258" y="-15.4" font-family="sans-serif" font-size="14.00" fill="#000000"> &#160;Exports</text>
<g id="clust1" class="cluster">
<title>cluster_AppModule</title>
<polygon fill="none" stroke="#000000" stroke-dasharray="1,5" points="8,-70 8,-268 1673,-268 1673,-70 8,-70"/>
</g>
<g id="clust2" class="cluster">
<title>cluster_AppModule_declarations</title>
<polygon fill="none" stroke="#000000" points="168,-78 168,-130 1665,-130 1665,-78 168,-78"/>
</g>
<g id="clust13" class="cluster">
<title>cluster_AppModule_imports</title>
<polygon fill="none" stroke="#000000" points="16,-78 16,-130 160,-130 160,-78 16,-78"/>
</g>
<g id="clust15" class="cluster">
<title>cluster_AppModule_bootstrap</title>
<polygon fill="none" stroke="#000000" points="725,-208 725,-260 849,-260 849,-208 725,-208"/>
</g>
<!-- AppComponent -->
<g id="node1" class="node">
<title>AppComponent</title>
<polygon fill="#ffffb3" stroke="#000000" points="1656.9399,-122 1551.0601,-122 1551.0601,-86 1656.9399,-86 1656.9399,-122"/>
<text text-anchor="middle" x="1604" y="-99.8" font-family="Times,serif" font-size="14.00" fill="#000000">AppComponent</text>
</g>
<!-- AppModule -->
<g id="node11" class="node">
<title>AppModule</title>
<polygon fill="#8dd3c7" stroke="#000000" points="828.6571,-187 825.6571,-191 804.6571,-191 801.6571,-187 745.3429,-187 745.3429,-151 828.6571,-151 828.6571,-187"/>
<text text-anchor="middle" x="787" y="-164.8" font-family="Times,serif" font-size="14.00" fill="#000000">AppModule</text>
</g>
<!-- AppComponent&#45;&gt;AppModule -->
<g id="edge1" class="edge">
<title>AppComponent&#45;&gt;AppModule</title>
<path fill="none" stroke="#000000" d="M1604,-122.2479C1604,-145.0179 1604,-181 1604,-181 1604,-181 838.9213,-181 838.9213,-181"/>
<polygon fill="#000000" stroke="#000000" points="838.9213,-177.5001 828.9213,-181 838.9213,-184.5001 838.9213,-177.5001"/>
</g>
<!-- ContactComponent -->
<g id="node2" class="node">
<title>ContactComponent</title>
<polygon fill="#ffffb3" stroke="#000000" points="1533.3795,-122 1408.6205,-122 1408.6205,-86 1533.3795,-86 1533.3795,-122"/>
<text text-anchor="middle" x="1471" y="-99.8" font-family="Times,serif" font-size="14.00" fill="#000000">ContactComponent</text>
</g>
<!-- ContactComponent&#45;&gt;AppModule -->
<g id="edge2" class="edge">
<title>ContactComponent&#45;&gt;AppModule</title>
<path fill="none" stroke="#000000" d="M1471,-122.2843C1471,-143.3211 1471,-175 1471,-175 1471,-175 838.7576,-175 838.7576,-175"/>
<polygon fill="#000000" stroke="#000000" points="838.7577,-171.5001 828.7576,-175 838.7576,-178.5001 838.7577,-171.5001"/>
</g>
<!-- ContinentDetailComponent -->
<g id="node3" class="node">
<title>ContinentDetailComponent</title>
<polygon fill="#ffffb3" stroke="#000000" points="1390.2632,-122 1219.7368,-122 1219.7368,-86 1390.2632,-86 1390.2632,-122"/>
<text text-anchor="middle" x="1305" y="-99.8" font-family="Times,serif" font-size="14.00" fill="#000000">ContinentDetailComponent</text>
</g>
<!-- ContinentDetailComponent&#45;&gt;AppModule -->
<g id="edge3" class="edge">
<title>ContinentDetailComponent&#45;&gt;AppModule</title>
<path fill="none" stroke="#000000" d="M1305,-122.1061C1305,-141.3391 1305,-169 1305,-169 1305,-169 838.9513,-169 838.9513,-169"/>
<polygon fill="#000000" stroke="#000000" points="838.9514,-165.5001 828.9513,-169 838.9513,-172.5001 838.9514,-165.5001"/>
</g>
<!-- ContinentsComponent -->
<g id="node4" class="node">
<title>ContinentsComponent</title>
<polygon fill="#ffffb3" stroke="#000000" points="1202,-122 1060,-122 1060,-86 1202,-86 1202,-122"/>
<text text-anchor="middle" x="1131" y="-99.8" font-family="Times,serif" font-size="14.00" fill="#000000">ContinentsComponent</text>
</g>
<!-- ContinentsComponent&#45;&gt;AppModule -->
<g id="edge4" class="edge">
<title>ContinentsComponent&#45;&gt;AppModule</title>
<path fill="none" stroke="#000000" d="M1131,-122.0225C1131,-139.3734 1131,-163 1131,-163 1131,-163 838.8372,-163 838.8372,-163"/>
<polygon fill="#000000" stroke="#000000" points="838.8373,-159.5001 828.8372,-163 838.8372,-166.5001 838.8373,-159.5001"/>
</g>
<!-- CountrySearchComponent -->
<g id="node5" class="node">
<title>CountrySearchComponent</title>
<polygon fill="#ffffb3" stroke="#000000" points="1041.8075,-122 876.1925,-122 876.1925,-86 1041.8075,-86 1041.8075,-122"/>
<text text-anchor="middle" x="959" y="-99.8" font-family="Times,serif" font-size="14.00" fill="#000000">CountrySearchComponent</text>
</g>
<!-- CountrySearchComponent&#45;&gt;AppModule -->
<g id="edge5" class="edge">
<title>CountrySearchComponent&#45;&gt;AppModule</title>
<path fill="none" stroke="#000000" d="M959,-122.2396C959,-137.5706 959,-157 959,-157 959,-157 839.0759,-157 839.0759,-157"/>
<polygon fill="#000000" stroke="#000000" points="839.076,-153.5001 829.0759,-157 839.0759,-160.5001 839.076,-153.5001"/>
</g>
<!-- DashboardComponent -->
<g id="node6" class="node">
<title>DashboardComponent</title>
<polygon fill="#ffffb3" stroke="#000000" points="857.9734,-122 716.0266,-122 716.0266,-86 857.9734,-86 857.9734,-122"/>
<text text-anchor="middle" x="787" y="-99.8" font-family="Times,serif" font-size="14.00" fill="#000000">DashboardComponent</text>
</g>
<!-- DashboardComponent&#45;&gt;AppModule -->
<g id="edge6" class="edge">
<title>DashboardComponent&#45;&gt;AppModule</title>
<path fill="none" stroke="#000000" d="M787,-122.1061C787,-122.1061 787,-140.991 787,-140.991"/>
<polygon fill="#000000" stroke="#000000" points="783.5001,-140.9909 787,-150.991 790.5001,-140.991 783.5001,-140.9909"/>
</g>
<!-- MessagesComponent -->
<g id="node7" class="node">
<title>MessagesComponent</title>
<polygon fill="#ffffb3" stroke="#000000" points="697.7548,-122 562.2452,-122 562.2452,-86 697.7548,-86 697.7548,-122"/>
<text text-anchor="middle" x="630" y="-99.8" font-family="Times,serif" font-size="14.00" fill="#000000">MessagesComponent</text>
</g>
<!-- MessagesComponent&#45;&gt;AppModule -->
<g id="edge7" class="edge">
<title>MessagesComponent&#45;&gt;AppModule</title>
<path fill="none" stroke="#000000" d="M630,-122.2396C630,-137.5706 630,-157 630,-157 630,-157 735.3391,-157 735.3391,-157"/>
<polygon fill="#000000" stroke="#000000" points="735.3391,-160.5001 745.3391,-157 735.339,-153.5001 735.3391,-160.5001"/>
</g>
<!-- PaysComponent -->
<g id="node8" class="node">
<title>PaysComponent</title>
<polygon fill="#ffffb3" stroke="#000000" points="543.7744,-122 436.2256,-122 436.2256,-86 543.7744,-86 543.7744,-122"/>
<text text-anchor="middle" x="490" y="-99.8" font-family="Times,serif" font-size="14.00" fill="#000000">PaysComponent</text>
</g>
<!-- PaysComponent&#45;&gt;AppModule -->
<g id="edge8" class="edge">
<title>PaysComponent&#45;&gt;AppModule</title>
<path fill="none" stroke="#000000" d="M490,-122.0225C490,-139.3734 490,-163 490,-163 490,-163 735.0771,-163 735.0771,-163"/>
<polygon fill="#000000" stroke="#000000" points="735.0771,-166.5001 745.0771,-163 735.077,-159.5001 735.0771,-166.5001"/>
</g>
<!-- PaysDetailComponent -->
<g id="node9" class="node">
<title>PaysDetailComponent</title>
<polygon fill="#ffffb3" stroke="#000000" points="417.9818,-122 276.0182,-122 276.0182,-86 417.9818,-86 417.9818,-122"/>
<text text-anchor="middle" x="347" y="-99.8" font-family="Times,serif" font-size="14.00" fill="#000000">PaysDetailComponent</text>
</g>
<!-- PaysDetailComponent&#45;&gt;AppModule -->
<g id="edge9" class="edge">
<title>PaysDetailComponent&#45;&gt;AppModule</title>
<path fill="none" stroke="#000000" d="M347,-122.1061C347,-141.3391 347,-169 347,-169 347,-169 735.2092,-169 735.2092,-169"/>
<polygon fill="#000000" stroke="#000000" points="735.2092,-172.5001 745.2092,-169 735.2092,-165.5001 735.2092,-172.5001"/>
</g>
<!-- UniquePipe -->
<g id="node10" class="node">
<title>UniquePipe</title>
<polygon fill="#ffffb3" stroke="#000000" points="258.0997,-122 175.9003,-122 175.9003,-86 258.0997,-86 258.0997,-122"/>
<text text-anchor="middle" x="217" y="-99.8" font-family="Times,serif" font-size="14.00" fill="#000000">UniquePipe</text>
</g>
<!-- UniquePipe&#45;&gt;AppModule -->
<g id="edge10" class="edge">
<title>UniquePipe&#45;&gt;AppModule</title>
<path fill="none" stroke="#000000" d="M217,-122.2843C217,-143.3211 217,-175 217,-175 217,-175 735.0865,-175 735.0865,-175"/>
<polygon fill="#000000" stroke="#000000" points="735.0866,-178.5001 745.0865,-175 735.0865,-171.5001 735.0866,-178.5001"/>
</g>
<!-- AppComponent  -->
<g id="node13" class="node">
<title>AppComponent </title>
<polygon fill="#80b1d3" stroke="#000000" points="841.439,-252 732.561,-252 732.561,-216 841.439,-216 841.439,-252"/>
<text text-anchor="middle" x="787" y="-229.8" font-family="Times,serif" font-size="14.00" fill="#000000">AppComponent </text>
</g>
<!-- AppModule&#45;&gt;AppComponent  -->
<g id="edge12" class="edge">
<title>AppModule&#45;&gt;AppComponent </title>
<path fill="none" stroke="#000000" stroke-dasharray="1,5" d="M787,-187.1061C787,-187.1061 787,-205.991 787,-205.991"/>
<polygon fill="#000000" stroke="#000000" points="783.5001,-205.9909 787,-215.991 790.5001,-205.991 783.5001,-205.9909"/>
</g>
<!-- AppRoutingModule -->
<g id="node12" class="node">
<title>AppRoutingModule</title>
<polygon fill="#8dd3c7" stroke="#000000" points="152.2744,-122 149.2744,-126 128.2744,-126 125.2744,-122 23.7256,-122 23.7256,-86 152.2744,-86 152.2744,-122"/>
<text text-anchor="middle" x="88" y="-99.8" font-family="Times,serif" font-size="14.00" fill="#000000">AppRoutingModule</text>
</g>
<!-- AppRoutingModule&#45;&gt;AppModule -->
<g id="edge11" class="edge">
<title>AppRoutingModule&#45;&gt;AppModule</title>
<path fill="none" stroke="#000000" d="M88,-122.2479C88,-145.0179 88,-181 88,-181 88,-181 735.1085,-181 735.1085,-181"/>
<polygon fill="#000000" stroke="#000000" points="735.1085,-184.5001 745.1085,-181 735.1084,-177.5001 735.1085,-184.5001"/>
</g>
</g>
</svg>
